<svg width="115" height="52" fill="none" xmlns="http://www.w3.org/2000/svg">
    <path d="M7.107 26c0-3.339 2.718-6.046 6.07-6.046v-7.027C5.928 12.927.052 18.78.052 26c0 7.22 5.876 13.073 13.125 13.073v-7.027c-3.352 0-6.07-2.707-6.07-6.046z" fill="#CCC"/>
    <mask id="a" maskUnits="userSpaceOnUse" x="13" y="0" width="27" height="52">
        <path d="M13.177 39.073c7.25 0 13.126-5.853 13.126-13.073 0-7.22-5.877-13.073-13.126-13.073V.161h.117C27.622.161 39.236 11.73 39.236 26c0 14.27-11.614 25.838-25.942 25.838h-.117V39.073z" fill="#fff"/>
    </mask>
    <g filter="url(#filter0_f)" mask="url(#a)">
        <ellipse cx="13.092" cy="26" rx="19.324" ry="19.462" transform="rotate(-90 13.092 26)" fill="url(#paint0_linear)"/>
    </g>
    <path d="M47.864 21.437c1.201 0 2.123.279 2.88.804l-.526 1.672c-.675-.41-1.284-.688-2.223-.688-1.432 0-2.568 1-2.568 2.804 0 1.721 1.103 2.755 2.519 2.755a4.55 4.55 0 002.354-.574l.313 1.623c-.659.443-1.597.738-2.848.738-2.503 0-4.544-1.607-4.544-4.46 0-2.985 2.123-4.674 4.643-4.674zM62.304 21.454c2.404 0 4.297 1.443 4.297 4.558.004.225-.013.45-.049.672h-6.536c.214 1.476 1.152 2.214 2.832 2.214a5.928 5.928 0 002.98-.721l.362 1.508c-.955.558-2.173.902-3.672.902-3.029 0-4.692-1.705-4.692-4.51 0-2.803 1.893-4.623 4.478-4.623zm-.033 1.656c-1.284 0-2.074.77-2.255 2.263h4.412c-.148-1.509-.872-2.263-2.157-2.263zM89.627 21.437c2.486 0 4.824 1.59 4.824 4.559 0 2.951-2.255 4.575-4.857 4.575-2.535 0-4.725-1.574-4.725-4.526s2.223-4.608 4.758-4.608zm.033 1.755c-1.366 0-2.585.902-2.585 2.788 0 1.885 1.12 2.82 2.552 2.82 1.482 0 2.618-.951 2.618-2.788 0-1.853-1.186-2.82-2.585-2.82zM79.072 19.527h2.095v2.155h3.047v1.61h-3.047v5.296h3.047v1.715h-3.027a2.11 2.11 0 01-2.115-2.107v-8.67zM57.398 21.661h-.393c-.886 0-1.736.35-2.362.975l-.443.44v-1.414h.006-2.144l-.003 8.689h2.138l.003-6.745h3.198V21.66zM112.627 21.683l-2.388 6.379-2.288-6.379h-2.437l3.622 8.724-.466 1.04h-1.71v1.703h2.032c.689 0 1.311-.412 1.578-1.045l4.378-10.422h-2.321zM71.93 21.454c1.333 0 2.69.82 3.112 2.081v-1.852h2.09v8.675h-2.09v-2.082a3.236 3.236 0 01-3.112 2.279c-2.256 0-4.28-1.558-4.28-4.526s1.959-4.575 4.28-4.575zm3.112 4.476c-.428-1.672-1.515-2.705-2.8-2.705-1.35 0-2.386.934-2.386 2.77 0 1.772 1.037 2.788 2.387 2.788 1.4 0 2.404-1.147 2.799-2.77v-.083zM97.864 21.683v1.901c.612-1.314 1.761-2.13 3.112-2.13 2.321 0 4.28 1.64 4.28 4.607 0 2.968-2.025 4.526-4.28 4.526-1.318 0-2.59-.95-3.03-2.13v4.693H95.84V21.683h2.025zm2.799 1.542c-1.317 0-2.404 1.131-2.8 2.804.38 1.656 1.433 2.77 2.783 2.77 1.367 0 2.404-1.016 2.404-2.77 0-1.837-1.037-2.804-2.387-2.804z" fill="#000"/>
    <defs>
        <linearGradient id="paint0_linear" x1="-6.232" y1="26" x2="32.417" y2="26" gradientUnits="userSpaceOnUse">
            <stop stop-color="#CF0"/>
            <stop offset="1" stop-color="#6FF"/>
        </linearGradient>
        <filter id="filter0_f" x="-13.369" y="-.324" width="52.923" height="52.649" filterUnits="userSpaceOnUse" color-interpolation-filters="sRGB">
            <feFlood flood-opacity="0" result="BackgroundImageFix"/>
            <feBlend in="SourceGraphic" in2="BackgroundImageFix" result="shape"/>
            <feGaussianBlur stdDeviation="3.5" result="effect1_foregroundBlur"/>
        </filter>
    </defs>
</svg>